<svg id="visual" viewBox="0 0 900 600" width="900" height="600" xmlns="http://www.w3.org/2000/svg" xmlns:xlink="http://www.w3.org/1999/xlink" version="1.1"><rect x="0" y="0" width="900" height="600" fill="#001220"></rect><path d="M0 360L21.5 362.3C43 364.7 86 369.3 128.8 384C171.7 398.7 214.3 423.3 257.2 432.7C300 442 343 436 385.8 423.2C428.7 410.3 471.3 390.7 514.2 387.8C557 385 600 399 642.8 408C685.7 417 728.3 421 771.2 417.8C814 414.7 857 404.3 878.5 399.2L900 394L900 601L878.5 601C857 601 814 601 771.2 601C728.3 601 685.7 601 642.8 601C600 601 557 601 514.2 601C471.3 601 428.7 601 385.8 601C343 601 300 601 257.2 601C214.3 601 171.7 601 128.8 601C86 601 43 601 21.5 601L0 601Z" fill="#fa7268"></path><path d="M0 430L21.5 436.7C43 443.3 86 456.7 128.8 456.8C171.7 457 214.3 444 257.2 441.2C300 438.3 343 445.7 385.8 442.5C428.7 439.3 471.3 425.7 514.2 421.5C557 417.3 600 422.7 642.8 431C685.7 439.3 728.3 450.7 771.2 455.7C814 460.7 857 459.3 878.5 458.7L900 458L900 601L878.5 601C857 601 814 601 771.2 601C728.3 601 685.7 601 642.8 601C600 601 557 601 514.2 601C471.3 601 428.7 601 385.8 601C343 601 300 601 257.2 601C214.3 601 171.7 601 128.8 601C86 601 43 601 21.5 601L0 601Z" fill="#ef5f67"></path><path d="M0 485L21.5 487.8C43 490.7 86 496.3 128.8 491.7C171.7 487 214.3 472 257.2 469.5C300 467 343 477 385.8 481.3C428.7 485.7 471.3 484.3 514.2 481.3C557 478.3 600 473.7 642.8 475.5C685.7 477.3 728.3 485.7 771.2 482.8C814 480 857 466 878.5 459L900 452L900 601L878.5 601C857 601 814 601 771.2 601C728.3 601 685.7 601 642.8 601C600 601 557 601 514.2 601C471.3 601 428.7 601 385.8 601C343 601 300 601 257.2 601C214.3 601 171.7 601 128.8 601C86 601 43 601 21.5 601L0 601Z" fill="#e34c67"></path><path d="M0 495L21.5 496.3C43 497.7 86 500.3 128.8 504.8C171.7 509.3 214.3 515.7 257.2 512.7C300 509.7 343 497.3 385.8 493.5C428.7 489.7 471.3 494.3 514.2 500.7C557 507 600 515 642.8 518.5C685.7 522 728.3 521 771.2 523.5C814 526 857 532 878.5 535L900 538L900 601L878.5 601C857 601 814 601 771.2 601C728.3 601 685.7 601 642.8 601C600 601 557 601 514.2 601C471.3 601 428.7 601 385.8 601C343 601 300 601 257.2 601C214.3 601 171.7 601 128.8 601C86 601 43 601 21.5 601L0 601Z" fill="#d53867"></path><path d="M0 531L21.5 537.3C43 543.7 86 556.3 128.8 555.3C171.7 554.3 214.3 539.7 257.2 536.7C300 533.7 343 542.3 385.8 547.3C428.7 552.3 471.3 553.7 514.2 549.3C557 545 600 535 642.8 532.5C685.7 530 728.3 535 771.2 540.2C814 545.3 857 550.7 878.5 553.3L900 556L900 601L878.5 601C857 601 814 601 771.2 601C728.3 601 685.7 601 642.8 601C600 601 557 601 514.2 601C471.3 601 428.7 601 385.8 601C343 601 300 601 257.2 601C214.3 601 171.7 601 128.8 601C86 601 43 601 21.5 601L0 601Z" fill="#c62368"></path></svg>